# Blender v2.78 (sub 0) OBJ File: 'iae.blend'
# www.blender.org
mtllib iae.mtl
o Plane
v -14.000000 0.000000 14.000000
v 14.000000 0.000000 14.000000
v -14.000000 0.000000 -14.000000
v 14.000000 0.000000 -14.000000
v -8.000000 0.000000 -14.000000
v 8.000000 0.000000 -14.000000
v -6.000000 0.000000 -14.988092
v -4.000000 0.000000 -15.404759
v -2.000000 0.000000 -15.821426
v 0.000000 0.000000 -16.071426
v 2.000000 0.000000 -15.821426
v 4.000000 0.000000 -15.404759
v 6.000000 0.000000 -14.988092
v -6.000000 0.000000 -14.000000
v -4.000000 0.000000 -14.000000
v -2.000000 0.000000 -14.000000
v 0.000000 0.000000 -14.000000
v 2.000000 0.000000 -14.000000
v 4.000000 0.000000 -14.000000
v 6.000000 0.000000 -14.000000
v -8.000000 0.000000 14.000000
v 8.000000 0.000000 14.000000
v -14.000000 0.000000 8.000000
v 14.000000 0.000000 8.000000
v -8.000000 0.000000 8.000000
v 8.000000 0.000000 8.000000
v -2.000000 0.000000 8.000000
v 4.000000 0.000000 8.000000
v -1.000000 0.000000 18.000000
v -0.500000 0.000000 11.750000
v -1.500000 0.000000 9.250000
v -1.000000 0.000000 10.500000
v -0.187500 0.000000 13.000000
v -0.500000 0.000000 15.500000
v -0.250000 0.000000 14.250000
v -0.750000 0.000000 16.750000
v 2.750000 0.000000 12.062500
v 3.583333 0.000000 9.354166
v -0.166667 0.000000 16.854166
v 3.166667 0.000000 10.708333
v 2.229167 0.000000 13.364583
v 0.666667 0.000000 15.708333
v 1.500000 0.000000 14.562500
v -6.000000 0.000000 8.000000
v -4.000000 0.000000 8.000000
v 6.000000 0.000000 8.000000
v 0.000000 0.000000 8.000000
v 2.000000 0.000000 8.000000
v -14.000000 2.000001 14.000000
v 14.000000 2.000001 14.000000
v -14.000000 2.000001 -14.000000
v 14.000000 2.000001 -14.000000
v -8.000000 2.000001 -14.000000
v 8.000000 2.000001 -14.000000
v -6.000000 2.000001 -14.988092
v -4.000000 2.000001 -15.404759
v -2.000000 2.000001 -15.821426
v 0.000000 2.000001 -16.071426
v 2.000000 2.000001 -15.821426
v 4.000000 2.000001 -15.404759
v 6.000000 2.000001 -14.988092
v -6.000000 2.000001 -14.000000
v -4.000000 2.000001 -14.000000
v -2.000000 2.000001 -14.000000
v 0.000000 2.000001 -14.000000
v 2.000000 2.000001 -14.000000
v 4.000000 2.000001 -14.000000
v 6.000000 2.000001 -14.000000
v -8.000000 2.000001 14.000000
v 8.000000 2.000001 14.000000
v -14.000000 2.000001 8.000000
v 14.000000 2.000001 8.000000
v -8.000000 2.000001 8.000000
v 8.000000 2.000001 8.000000
v -2.000000 2.000001 8.000000
v 4.000000 2.000001 8.000000
v -1.000000 2.000001 18.000000
v -0.500000 2.000001 11.750000
v -1.500000 2.000001 9.250000
v -1.000000 2.000001 10.500000
v -0.187500 2.000001 13.000000
v -0.500000 2.000001 15.500000
v -0.250000 2.000001 14.250000
v -0.750000 2.000001 16.750000
v 2.750000 2.000001 12.062500
v 3.583333 2.000001 9.354166
v -0.166667 2.000001 16.854166
v 3.166667 2.000001 10.708333
v 2.229167 2.000001 13.364583
v 0.666667 2.000001 15.708333
v 1.500000 2.000001 14.562500
v -6.000000 2.000001 8.000000
v -4.000000 2.000001 8.000000
v 6.000000 2.000001 8.000000
v 0.000000 2.000001 8.000000
v 2.000000 2.000001 8.000000
vn 0.0000 -1.0000 0.0000
vn 0.0000 0.0000 1.0000
vn 0.0000 1.0000 0.0000
vn 0.0000 0.0000 -1.0000
vn 0.8542 0.0000 0.5199
vn 0.8087 0.0000 0.5882
vn -0.9285 0.0000 0.3714
vn 1.0000 0.0000 0.0000
vn 0.4429 0.0000 -0.8966
vn -0.9701 0.0000 0.2425
vn -0.4429 0.0000 -0.8966
vn -0.9806 0.0000 -0.1961
vn -0.2040 0.0000 -0.9790
vn -0.9988 0.0000 -0.0499
vn -1.0000 0.0000 0.0000
vn -0.1240 0.0000 -0.9923
vn 0.9285 0.0000 0.3714
vn 0.1240 0.0000 -0.9923
vn 0.9558 0.0000 0.2941
vn 0.2040 0.0000 -0.9790
usemtl None
s off
f 5//1 25//1 23//1 3//1
f 14//1 44//1 25//1 5//1
f 15//1 45//1 44//1 14//1
f 16//1 27//1 45//1 15//1
f 17//1 47//1 27//1 16//1
f 18//1 48//1 47//1 17//1
f 19//1 28//1 48//1 18//1
f 20//1 46//1 28//1 19//1
f 6//1 26//1 46//1 20//1
f 4//1 24//1 26//1 6//1
f 26//1 24//1 2//1 22//1
f 1//1 23//1 25//1 21//1
f 7//1 14//1 5//1
f 6//1 20//1 13//1
f 8//1 15//1 14//1 7//1
f 9//1 16//1 15//1 8//1
f 10//1 17//1 16//1 9//1
f 11//1 18//1 17//1 10//1
f 13//1 20//1 19//1 12//1
f 12//1 19//1 18//1 11//1
f 29//1 36//1 39//1
f 34//1 42//1 39//1 36//1
f 35//1 43//1 42//1 34//1
f 43//1 35//1 33//1 41//1
f 33//1 30//1 37//1 41//1
f 30//1 32//1 40//1 37//1
f 32//1 31//1 38//1 40//1
f 48//2 28//2 27//2 47//2
f 27//1 47//1 31//1
f 38//1 48//1 28//1
f 47//1 48//1 38//1 31//1
f 53//3 51//3 71//3 73//3
f 62//3 53//3 73//3 92//3
f 63//3 62//3 92//3 93//3
f 64//3 63//3 93//3 75//3
f 65//3 64//3 75//3 95//3
f 66//3 65//3 95//3 96//3
f 67//3 66//3 96//3 76//3
f 68//3 67//3 76//3 94//3
f 54//3 68//3 94//3 74//3
f 52//3 54//3 74//3 72//3
f 74//3 70//3 50//3 72//3
f 49//3 69//3 73//3 71//3
f 55//3 53//3 62//3
f 54//3 61//3 68//3
f 56//3 55//3 62//3 63//3
f 57//3 56//3 63//3 64//3
f 58//3 57//3 64//3 65//3
f 59//3 58//3 65//3 66//3
f 61//3 60//3 67//3 68//3
f 60//3 59//3 66//3 67//3
f 77//3 87//3 84//3
f 82//3 84//3 87//3 90//3
f 83//3 82//3 90//3 91//3
f 91//3 89//3 81//3 83//3
f 81//3 89//3 85//3 78//3
f 78//3 85//3 88//3 80//3
f 80//3 88//3 86//3 79//3
f 96//2 95//2 75//2 76//2
f 95//3 75//3 79//3
f 86//3 76//3 96//3
f 95//3 79//3 86//3 96//3
f 6//4 54//4 52//4 4//4
f 43//5 41//5 89//5 91//5
f 42//6 43//6 91//6 90//6
f 2//2 50//2 70//2 22//2
f 32//7 30//7 78//7 80//7
f 3//4 51//4 53//4 5//4
f 27//7 31//7 79//7 75//7
f 25//8 73//8 69//8 21//8
f 31//7 32//7 80//7 79//7
f 13//9 61//9 54//9 6//9
f 30//10 33//10 81//10 78//10
f 28//2 76//2 75//2 27//2
f 5//11 53//11 55//11 7//11
f 35//12 34//12 82//12 83//12
f 44//2 92//2 73//2 25//2
f 7//13 55//13 56//13 8//13
f 33//14 35//14 83//14 81//14
f 21//2 69//2 49//2 1//2
f 45//2 93//2 92//2 44//2
f 8//13 56//13 57//13 9//13
f 34//12 36//12 84//12 82//12
f 23//15 71//15 51//15 3//15
f 46//2 94//2 76//2 28//2
f 9//16 57//16 58//16 10//16
f 41//17 37//17 85//17 89//17
f 24//8 72//8 50//8 2//8
f 10//18 58//18 59//18 11//18
f 37//19 40//19 88//19 85//19
f 11//20 59//20 60//20 12//20
f 40//19 38//19 86//19 88//19
f 1//15 49//15 71//15 23//15
f 27//2 75//2 93//2 45//2
f 12//20 60//20 61//20 13//20
f 38//19 28//19 76//19 86//19
f 4//8 52//8 72//8 24//8
f 26//2 74//2 94//2 46//2
f 29//6 39//6 87//6 77//6
f 22//15 70//15 74//15 26//15
f 36//12 29//12 77//12 84//12
f 39//6 42//6 90//6 87//6
